<svg xmlns="http://www.w3.org/2000/svg" width="27.845" height="26.884" viewBox="0 0 27.845 26.884">
  <path id="_15d73ea68b" data-name="15d73ea68b" d="M26.453,12.312H.892a.892.892,0,0,0,0,1.783H26.453a.892.892,0,1,0,0-1.783ZM6.79,7.888a.892.892,0,1,0,0,1.783H20.554a.892.892,0,0,0,0-1.783ZM20.554,18.519a.892.892,0,0,0,0-1.783H6.79a.892.892,0,0,0,0,1.783ZM18.1,1.806h6.311a.663.663,0,0,1,.662.662V8.779a.892.892,0,1,0,1.783,0V2.469A2.448,2.448,0,0,0,24.407.023H18.1a.892.892,0,1,0,0,1.783ZM1.383,9.648a.892.892,0,0,0,.892-.892V2.446a.663.663,0,0,1,.662-.662H9.248A.892.892,0,1,0,9.248,0H2.937A2.448,2.448,0,0,0,.492,2.446V8.756A.892.892,0,0,0,1.383,9.648Zm24.578,7.088a.892.892,0,0,0-.892.892v6.311a.663.663,0,0,1-.662.662H18.1a.892.892,0,0,0,0,1.783h6.311a2.448,2.448,0,0,0,2.445-2.446V17.628A.892.892,0,0,0,25.961,16.736ZM9.248,24.6H2.938a.663.663,0,0,1-.662-.662V17.628a.892.892,0,0,0-1.783,0v6.311a2.448,2.448,0,0,0,2.446,2.446H9.248a.892.892,0,0,0,0-1.783Z" transform="translate(0.25 0.25)" fill="#fff" stroke="#fff" stroke-width="0.5"/>
</svg>
